HIERARCHY
ROOT Hips
{
	OFFSET 0.00 0.00 0.00
	CHANNELS 6 Xposition Yposition Zposition Xrotation Yrotation Zrotation
	JOINT Spine
	{
		OFFSET 0.00000 0.84964 1.27446
		CHANNELS 3 Xrotation Yrotation Zrotation
		JOINT Spine1
		{
			OFFSET 0.00000 0.29508 1.67346
			CHANNELS 3 Xrotation Yrotation Zrotation
			JOINT Spine2
			{
				OFFSET 0.00000 0.14810 1.69281
				CHANNELS 3 Xrotation Yrotation Zrotation
				JOINT Spine3
				{
					OFFSET 0.00000 0.00000 1.69928
					CHANNELS 3 Xrotation Yrotation Zrotation
					JOINT Neck
					{
						OFFSET 0.00000 -0.63723 4.46061
						CHANNELS 3 Xrotation Yrotation Zrotation
						JOINT Head
						{
							OFFSET 0.00000 -0.40573 2.30101
							CHANNELS 3 Xrotation Yrotation Zrotation
							End Site
							{
								OFFSET 0.00000 0.00000 2.75071
							}
						}
					}
					JOINT RightShoulder
					{
						OFFSET -0.72014 -1.20022 3.88874
						CHANNELS 3 Xrotation Yrotation Zrotation
						JOINT RightArm
						{
							OFFSET -3.57668 0.00000 0.00000
							CHANNELS 3 Xrotation Yrotation Zrotation
							JOINT RightForeArm
							{
								OFFSET -5.92485 0.00000 0.00000
								CHANNELS 3 Xrotation Yrotation Zrotation
								JOINT RightHand
								{
									OFFSET -6.63013 0.00000 0.00000
									CHANNELS 3 Xrotation Yrotation Zrotation
									JOINT RightHandEnd
									{
										OFFSET -1.65321 0.00000 0.00000
										CHANNELS 3 Xrotation Yrotation Zrotation
										End Site
										{
											OFFSET -1.65321 0.00000 0.00000
										}
									}
									JOINT RightHandThumb1
									{
										OFFSET -0.66129 -1.10214 -0.44086
										CHANNELS 3 Yrotation Xrotation Zrotation
										End Site
										{
											OFFSET -1.59688 -0.42788 0.00000
										}
									}
								}
							}
						}
					}
					JOINT LeftShoulder
					{
						OFFSET 0.72014 -1.20022 3.88874
						CHANNELS 3 Xrotation Yrotation Zrotation
						JOINT LeftArm
						{
							OFFSET 3.57668 0.00000 0.00000
							CHANNELS 3 Xrotation Yrotation Zrotation
							JOINT LeftForeArm
							{
								OFFSET 5.92485 0.00000 0.00000
								CHANNELS 3 Xrotation Yrotation Zrotation
								JOINT LeftHand
								{
									OFFSET 6.63013 0.00000 0.00000
									CHANNELS 3 Xrotation Yrotation Zrotation
									JOINT LeftHandEnd
									{
										OFFSET 1.65321 0.00000 0.00000
										CHANNELS 3 Xrotation Yrotation Zrotation
										End Site
										{
											OFFSET 1.65321 0.00000 0.00000
										}
									}
									JOINT LeftHandThumb1
									{
										OFFSET 0.66129 -1.10214 -0.44086
										CHANNELS 3 Yrotation Xrotation Zrotation
										End Site
										{
											OFFSET 1.59688 -0.42788 0.00000
										}
									}
								}
							}
						}
					}
				}
			}
		}
	}
	JOINT RightUpLeg
	{
		OFFSET -2.13640 0.00000 -0.62412
		CHANNELS 3 Xrotation Yrotation Zrotation
		JOINT RightLeg
		{
			OFFSET 0.00000 0.00000 -11.49360
			CHANNELS 3 Xrotation Yrotation Zrotation
			JOINT RightFoot
			{
				OFFSET 0.00000 0.00000 -8.79036
				CHANNELS 3 Xrotation Yrotation Zrotation
				JOINT RightToeBase
				{
					OFFSET 0.00000 -3.94625 -1.43632
					CHANNELS 3 Xrotation Yrotation Zrotation
					End Site
					{
						OFFSET 0.00000 -1.72833 -0.00000
					}
				}
			}
		}
	}
	JOINT LeftUpLeg
	{
		OFFSET 2.13640 0.00000 -0.62412
		CHANNELS 3 Xrotation Yrotation Zrotation
		JOINT LeftLeg
		{
			OFFSET 0.00000 0.00000 -11.49360
			CHANNELS 3 Xrotation Yrotation Zrotation
			JOINT LeftFoot
			{
				OFFSET 0.00000 0.00000 -8.79036
				CHANNELS 3 Xrotation Yrotation Zrotation
				JOINT LeftToeBase
				{
					OFFSET 0.00000 -3.94625 -1.43632
					CHANNELS 3 Xrotation Yrotation Zrotation
					End Site
					{
						OFFSET 0.00000 -1.72833 -0.00000
					}
				}
			}
		}
	}
}
MOTION
Frames: 7
Frame Time: 0.02
 0.6980 -1.9531 23.6225 0.3557 -1.3722 -179.2682 -3.1499 -6.1554 0.3054 -1.1199 -3.4443 -0.3193 8.7492 1.7271 12.1856 0.7458 8.3769 -0.9152 -9.5740 0.7463 -1.6841 2.0038 -0.1972 -12.6566 -3.3046 0.1281 13.9525 -10.5095 -20.2009 11.5479 -0.0000 0.0001 81.8174 70.5591 65.9073 -0.2190 -0.0000 -0.0000 -0.0000 0.0000 -0.0000 0.0000 -1.6108 20.0631 -0.6894 11.3413 54.7410 -8.9885 -0.0000 -0.0000 -25.2911 -3.3382 -19.9723 12.5106 0.0000 -0.0000 0.0000 -0.0000 0.0000 0.0000 3.6680 1.3949 -50.6422 -4.1201 0.0000 -0.0000 19.4830 -14.6633 42.4658 -29.8456 0.0000 -0.0000 3.4262 -4.7773 17.5971 -6.0904 0.0000 -0.0000 -0.4293 -4.7600 -22.5430 -4.8252 0.0000 -0.0000
 0.7066 -1.9481 23.6212 0.3275 -1.4033 -179.1646 -3.2157 -6.0971 0.3167 -1.1262 -3.4274 -0.3177 8.7281 1.6310 12.1006 0.7447 8.2933 -0.8988 -9.6091 0.8338 -1.7028 2.1289 -0.1387 -12.6309 -3.7533 0.0703 13.8214 -11.1117 -20.6982 11.0145 -0.0000 0.0001 82.0666 71.0396 63.8048 -1.0801 -0.0000 -0.0000 -0.0000 -0.0000 -0.0000 0.0000 -1.7796 19.9729 -0.6001 11.0476 54.5806 -8.7130 -0.0000 -0.0000 -25.1200 -3.3648 -20.0490 12.6139 -0.0000 0.0000 -0.0000 -0.0000 -0.0000 -0.0000 3.6780 1.3241 -50.6516 -4.1537 0.0000 -0.0000 19.4456 -14.7038 42.3807 -29.8292 0.0000 -0.0000 3.4221 -4.8242 17.5593 -6.1716 0.0000 -0.0000 -0.3940 -4.7552 -22.5994 -4.8366 0.0000 -0.0000
 0.7163 -1.9434 23.6199 0.2933 -1.4416 -179.0875 -3.2626 -6.0480 0.3329 -1.1284 -3.4131 -0.3137 8.6864 1.5450 12.0417 0.7408 8.2083 -0.8793 -9.6496 0.9406 -1.7215 2.2500 -0.0893 -12.6195 -4.2832 0.0042 13.6698 -12.1168 -21.6681 10.3626 -0.0000 0.0001 82.3034 70.6022 62.0194 -1.6334 -0.0000 -0.0000 0.0000 -0.0000 -0.0000 -0.0000 -1.9298 19.8667 -0.5302 10.7238 54.4331 -8.4070 -0.0000 -0.0000 -24.9285 -3.4042 -20.1104 12.7278 0.0000 0.0000 0.0000 0.0000 0.0000 0.0000 3.6779 1.2441 -50.6402 -4.1896 0.0000 -0.0000 19.4143 -14.7396 42.3007 -29.8091 0.0000 -0.0000 3.4206 -4.8794 17.5295 -6.2634 0.0000 -0.0000 -0.3526 -4.7518 -22.6363 -4.8511 0.0000 -0.0000
 0.7270 -1.9389 23.6187 0.2636 -1.4789 -179.0370 -3.2782 -6.0009 0.3517 -1.1288 -3.4078 -0.3090 8.6268 1.4714 12.0156 0.7319 8.1378 -0.8619 -9.6871 1.0490 -1.7413 2.3607 -0.0481 -12.6234 -4.8227 -0.1035 13.4909 -13.5412 -22.9826 9.6286 -0.0000 0.0001 82.4706 69.2763 60.7039 -1.8938 -0.0000 -0.0000 -0.0000 0.0000 -0.0000 -0.0000 -2.0496 19.7418 -0.4834 10.3445 54.2937 -8.0533 -0.0000 -0.0000 -24.7243 -3.4540 -20.1646 12.8468 0.0000 -0.0000 -0.0000 -0.0000 0.0000 0.0000 3.6774 1.1660 -50.6133 -4.2216 0.0000 -0.0000 19.3866 -14.7715 42.2315 -29.7882 0.0000 -0.0000 3.4303 -4.9342 17.5116 -6.3601 0.0000 -0.0000 -0.3065 -4.7507 -22.6578 -4.8683 0.0000 -0.0000
 0.7389 -1.9352 23.6175 0.1954 -1.5279 -179.0087 -3.3219 -5.9749 0.3723 -1.1199 -3.4070 -0.3058 8.5576 1.4244 12.0067 0.7177 8.0710 -0.8374 -9.7210 1.1629 -1.7632 2.4530 -0.0235 -12.6440 -5.3943 -0.2062 13.2984 -15.3510 -24.6492 8.7531 -0.0000 0.0001 82.5702 67.0852 59.9114 -1.8162 -0.0000 0.0000 0.0000 0.0000 -0.0000 0.0000 -2.1365 19.6165 -0.4685 9.8803 54.1430 -7.6215 -0.0000 -0.0000 -24.5183 -3.5126 -20.2079 12.9622 -0.0000 0.0000 -0.0000 -0.0000 0.0000 0.0000 3.6298 1.0767 -50.5776 -4.2472 0.0000 -0.0000 19.3617 -14.7917 42.1725 -29.7661 0.0000 -0.0000 3.4011 -5.0038 17.4963 -6.4532 0.0000 -0.0000 -0.2630 -4.7519 -22.6602 -4.8851 0.0000 -0.0000
 0.7514 -1.9312 23.6163 0.1611 -1.5750 -178.9981 -3.3060 -5.9536 0.3935 -1.1122 -3.4118 -0.3020 8.4685 1.3889 12.0191 0.6994 8.0254 -0.8196 -9.7385 1.2661 -1.7834 2.5232 -0.0118 -12.6785 -5.9331 -0.3209 13.1061 -17.5507 -26.5453 7.7331 -0.0000 0.0001 82.6026 64.0658 59.6475 -1.4485 -0.0000 -0.0000 -0.0000 -0.0000 -0.0000 -0.0000 -2.1800 19.4838 -0.4799 9.3213 53.9833 -7.1066 -0.0000 -0.0000 -24.3184 -3.5753 -20.2495 13.0689 -0.0000 -0.0000 -0.0000 0.0000 0.0000 0.0000 3.6140 0.9904 -50.5344 -4.2672 0.0000 -0.0000 19.3371 -14.8087 42.1239 -29.7450 0.0000 -0.0000 3.4124 -5.0724 17.4877 -6.5484 0.0000 -0.0000 -0.2189 -4.7545 -22.6505 -4.9016 0.0000 -0.0000
 0.7643 -1.9271 23.6151 0.1331 -1.6229 -178.9997 -3.2704 -5.9412 0.4125 -1.1019 -3.4201 -0.2990 8.3689 1.3694 12.0414 0.6755 7.9988 -0.8061 -9.7388 1.3540 -1.8031 2.5669 -0.0161 -12.7229 -6.4307 -0.4391 12.9179 -20.1054 -28.6049 6.5431 -0.0000 0.0001 82.6061 60.2670 59.8366 -0.8363 0.0000 -0.0000 -0.0000 0.0000 0.0000 0.0000 -2.1825 19.3581 -0.5144 8.6672 53.7961 -6.5047 -0.0000 -0.0000 -24.1315 -3.6353 -20.2901 13.1636 0.0000 0.0000 0.0000 -0.0000 -0.0000 0.0000 3.6005 0.9055 -50.4913 -4.2784 0.0000 -0.0000 19.3108 -14.8191 42.0862 -29.7258 0.0000 -0.0000 3.4301 -5.1436 17.4831 -6.6366 0.0000 -0.0000 -0.1800 -4.7581 -22.6326 -4.9154 0.0000 -0.0000
